<!--?xml version="1.0" standalone="no"?-->
              <svg id="sw-js-blob-svg" viewBox="0 0 100 100" xmlns="http://www.w3.org/2000/svg" version="1.1">
                    <defs> 
                        <linearGradient id="sw-gradient" x1="0" x2="1" y1="1" y2="0">
                            <stop id="stop1" stop-color="rgba(1, 66, 148, 1)" offset="0%"></stop>
                            <stop id="stop2" stop-color="rgba(3, 89, 197, 1)" offset="100%"></stop>
                        </linearGradient>
                    </defs>
                <path fill="url(#sw-gradient)" d="M5.4,-9.2C7.3,-8.3,9.2,-7.4,11.4,-5.8C13.6,-4.3,16.1,-2.1,17.4,0.8C18.8,3.7,19,7.4,16.4,8.2C13.8,9.1,8.3,7,5.1,5.5C1.9,4,0.9,3.1,-1.1,4.9C-3.1,6.8,-6.2,11.5,-12.9,15C-19.6,18.5,-29.9,20.8,-32.4,18.1C-34.9,15.5,-29.7,7.7,-24.4,3C-19.1,-1.6,-13.9,-3.3,-13.1,-9.1C-12.4,-14.9,-16.2,-24.8,-14.8,-25.9C-13.3,-27,-6.7,-19.3,-2.4,-15.1C1.8,-10.9,3.6,-10.1,5.4,-9.2Z" width="100%" height="100%" transform="translate(50 50)" stroke-width="0" style="transition: all 0.3s ease 0s;"></path>
              </svg>